<svg xmlns="http://www.w3.org/2000/svg" xmlns:xlink="http://www.w3.org/1999/xlink" width="100.0" height="100.0" viewBox="-96.43379808 28.569554919999998 0.5044581600000129 0.9550191600000026" preserveAspectRatio="xMinYMin meet"><g transform="matrix(1,0,0,-1,0,58.094128999999995)"><polyline fill="none" stroke="#66cc99" stroke-width="0.019100383200000053" points="-95.964711,28.604926 -95.978342,28.712185 -95.980824,28.734565 -95.988352,28.75613 -95.998891,28.776882 -96.036855,28.836005 -96.045481,28.857042 -96.047434,28.879584 -96.044911,28.902208 -96.021474,28.966905 -96.015696,28.988837 -96.015289,29.011339 -96.017445,29.034003 -96.029042,29.100938 -96.038889,29.14529 -96.051503,29.189032 -96.068186,29.231757 -96.09024,29.272569 -96.104319,29.291368 -96.121449,29.308458 -96.141265,29.322781 -96.164377,29.332628 -96.188791,29.340196 -96.288645,29.362128 -96.313466,29.36876 -96.336822,29.377794 -96.358713,29.39057 -96.37621,29.406765 -96.386708,29.427273 -96.393381,29.449408 -96.398427,29.489203" opacity="0.8" /></g></svg>