<svg xmlns="http://www.w3.org/2000/svg" xmlns:xlink="http://www.w3.org/1999/xlink" width="100.0" height="100.0" viewBox="-123.307672824 49.339082376 0.001094147999992856 0.001013247999999578" preserveAspectRatio="xMinYMin meet"><g transform="matrix(1,0,0,-1,0,98.67917800000001)"><polyline fill="none" stroke="#66cc99" stroke-width="2.188295999985712e-05" points="-123.3071861,49.3391229 -123.3072763,49.3391933 -123.3073502,49.3393802 -123.3073838,49.3393764 -123.3074914,49.3393551 -123.3075782,49.3393741 -123.3076323,49.3395038 -123.3076011,49.339719 -123.3075128,49.3397277 -123.3074266,49.3398032 -123.3073688,49.3398121 -123.3073076,49.3398355 -123.3071847,49.3399169 -123.30715,49.3399348 -123.3070792,49.3399602 -123.306958,49.3399622 -123.3068637,49.3400517 -123.3067457,49.3400551 -123.306646,49.3400284 -123.3066192,49.3398123 -123.3066199,49.3395952 -123.3066616,49.3395169 -123.3067242,49.3395012 -123.3067582,49.339316 -123.30692,49.3391933 -123.3070217,49.3391907 -123.3070817,49.339269 -123.3071183,49.3392038 -123.3071861,49.3391229" opacity="0.8" /></g></svg>